<svg width="20" height="24" viewBox="0 0 20 24" fill="none" xmlns="http://www.w3.org/2000/svg">
<path d="M10 5.99902C11.654 5.99902 13 4.65302 13 2.99902C13 1.34502 11.654 -0.000976562 10 -0.000976562C8.346 -0.000976562 7 1.34602 7 3.00002C7 4.65402 8.346 5.99902 10 5.99902Z" fill="#801DE2"/>
<path d="M6 15H7V19C7 19.553 7.448 20 8 20H12C12.552 20 13 19.553 13 19V15H14C14.552 15 15 14.553 15 14V12C15 9.244 12.757 7 10 7C7.243 7 5 9.244 5 12V14C5 14.552 5.448 15 6 15Z" fill="#801DE2"/>
<path d="M16.34 16.823L15.762 18.737C17.611 19.296 18 19.903 18 20C18 20.514 15.25 22 10 22C4.75 22 2 20.514 2 20C2 19.898 2.417 19.262 4.396 18.69L3.841 16.769C0.667 17.685 0 19.031 0 20C0 22.748 5.184 24 10 24C14.816 24 20 22.748 20 20C20 19.055 19.365 17.736 16.34 16.823Z" fill="#801DE2"/>
</svg>
