<svg width="24" height="24" viewBox="0 0 24 24" fill="none" xmlns="http://www.w3.org/2000/svg">
<path d="M4.00098 22C4.00098 21.298 4.12798 20.627 4.35098 20H3.33498C1.49398 20 0.000976562 21.159 0.000976562 23V24H4.00098V22Z" fill="#801DE2"/>
<path d="M7.59299 16.509C7.59299 16.506 7.59399 16.503 7.59399 16.5C7.59399 15.119 6.47399 14 5.09299 14C3.71299 14 2.59399 15.119 2.59399 16.5C2.59399 17.791 3.57499 18.84 4.82899 18.974C5.46699 17.888 6.43299 17.02 7.59299 16.509Z" fill="#801DE2"/>
<path d="M19.093 14C17.713 14 16.594 15.119 16.594 16.5C16.594 16.535 16.603 16.568 16.604 16.603C17.684 17.125 18.582 17.959 19.184 18.992C20.522 18.943 21.594 17.85 21.594 16.501C21.594 15.119 20.474 14 19.093 14Z" fill="#801DE2"/>
<path d="M20.6669 20H19.6509C19.8739 20.627 20.0009 21.298 20.0009 22V24H24.0009V23C24.0009 21.159 22.5079 20 20.6669 20Z" fill="#801DE2"/>
<path d="M6.00098 24.0002H18.001V22.0002C18.001 20.0842 16.652 18.4872 14.854 18.0962C14.043 18.6622 13.062 19.0002 12.001 19.0002C10.94 19.0002 9.95798 18.6622 9.14798 18.0962C7.34998 18.4872 6.00098 20.0842 6.00098 22.0002V24.0002Z" fill="#801DE2"/>
<path d="M12.001 17C13.6578 17 15.001 15.6569 15.001 14C15.001 12.3431 13.6578 11 12.001 11C10.3441 11 9.00098 12.3431 9.00098 14C9.00098 15.6569 10.3441 17 12.001 17Z" fill="#801DE2"/>
<path d="M17.001 0H7.00098C5.89598 0 5.00098 0.896 5.00098 2V13L8.00098 10H17.001C18.106 10 19.001 9.104 19.001 8V2C19.001 0.896 18.106 0 17.001 0ZM16.001 8H8.00098V6H16.001V8ZM16.001 4H8.00098V2H16.001V4Z" fill="#801DE2"/>
</svg>
