<svg width="20" height="21" viewBox="0 0 20 21" fill="none" xmlns="http://www.w3.org/2000/svg">
<path d="M11.01 13.9961H9.01001C6.25301 13.9961 4.01001 16.2391 4.01001 18.9961V20.9961H16.01V18.9961C16.01 16.2391 13.767 13.9961 11.01 13.9961Z" fill="#801DE2"/>
<path d="M6.35406 12.5228C5.10406 10.7658 5.25406 8.31284 6.82906 6.73884C8.58306 4.98484 11.4381 4.98484 13.1921 6.73884C14.7661 8.31284 14.9171 10.7658 13.6681 12.5228C14.2971 12.7818 14.8801 13.1298 15.4011 13.5508C17.1021 11.0248 16.8391 7.55884 14.6071 5.32384C12.0731 2.78884 7.94906 2.79084 5.41406 5.32384C3.18306 7.55784 2.91906 11.0238 4.62006 13.5508C5.14206 13.1288 5.72506 12.7818 6.35406 12.5228Z" fill="#801DE2"/>
<path d="M3.52206 14.664C2.54506 13.311 2.01006 11.697 2.01006 9.99599C2.01006 7.85799 2.84306 5.84999 4.35406 4.33899C7.47306 1.21999 12.5471 1.21999 15.6671 4.33899C18.4761 7.14999 18.7461 11.538 16.4971 14.663C16.9411 15.225 17.3001 15.857 17.5561 16.541C20.9621 12.618 20.8101 6.65499 17.0801 2.92399C13.1811 -0.974012 6.83706 -0.974012 2.93806 2.92399C1.04906 4.81399 0.00805664 7.32499 0.00805664 9.99599C0.00805664 12.43 0.880057 14.725 2.46106 16.542C2.71906 15.858 3.07706 15.226 3.52206 14.664Z" fill="#801DE2"/>
<path d="M10.01 12.9961C11.6669 12.9961 13.01 11.6529 13.01 9.99609C13.01 8.33924 11.6669 6.99609 10.01 6.99609C8.35316 6.99609 7.01001 8.33924 7.01001 9.99609C7.01001 11.6529 8.35316 12.9961 10.01 12.9961Z" fill="#801DE2"/>
</svg>
