<svg width="20" height="20" viewBox="0 0 20 20" fill="none" xmlns="http://www.w3.org/2000/svg">
<path d="M20.001 4H17.001V1H15.001V4H12.001V6H15.001V9H17.001V6H20.001V4Z" fill="#801DE2"/>
<path d="M5.00098 6C6.65783 6 8.00098 4.65685 8.00098 3C8.00098 1.34315 6.65783 0 5.00098 0C3.34412 0 2.00098 1.34315 2.00098 3C2.00098 4.65685 3.34412 6 5.00098 6Z" fill="#801DE2"/>
<path d="M5.00098 6C2.24398 6 0.000976562 8.243 0.000976562 11V14C0.000976562 14.552 0.448977 15 1.00098 15H2.00098V19C2.00098 19.552 2.44898 20 3.00098 20H7.00098C7.55298 20 8.00098 19.552 8.00098 19V15H9.00098C9.55298 15 10.001 14.552 10.001 14V11C10.001 8.243 7.75798 6 5.00098 6Z" fill="#801DE2"/>
</svg>
